<svg xmlns="http://www.w3.org/2000/svg" height="800" width="1200" viewBox="-44.03835 -32.107 381.6657 192.642"><path d="M38.686 20.71a8.61 8.61 0 0117.218 0c0 4.756-3.856 8.613-8.609 8.613-4.756 0-8.609-3.857-8.609-8.613" fill="#0066B3"/><path d="M86.767 4.288s-6.879 1.116-14.238 3.02c-5.548 1.436-9.404 2.63-10.846 3.086.003-.012.003-.027.003-.042-2.111.654-4.171 1.34-6.189 2.045a11.638 11.638 0 013.454 7.875 178.759 178.759 0 014.999-2.105c-.003-.003-.006-.006-.006-.009 1.898-.69 7.041-2.546 11.452-4.045 5.527-1.87 13.008-4.165 13.008-4.165C110.216 3.93 134.356.433 156.856.601 130.914-.943 107.324.56 86.768 4.284m206.451 82.05c-23.345 21.198-76.511 33.568-137.249 33.568-82.505 0-135.822-24.204-139.534-56.229-1.394-12.034 8.096-23.682 23.86-33.632a11.634 11.634 0 01-4.666-9.117C12.873 32.85 0 48.56 0 64.496c0 35.285 63.11 65.19 156.857 63.891 63.775-.882 112.213-19.079 136.732-41.336l-.369-.71" fill="#ED1941"/><path fill="#0066B3" d="M43.493 85.465V36.086l8.108-1.074v50.453h-8.108m35.384 0V57.216c0-3.218-.285-4.54-.927-5.446-.576-.828-1.574-1.074-2.648-1.074-1.574 0-3.934 1.322-5.862 3.716v31.056h-8.081V54.661c0-5.038-.642-7.842-1.071-10.16l7.581-1.979c.216.741.93 2.807.999 4.954 2.075-2.56 5.865-4.705 9.584-4.705 2.861 0 5.149 1.155 6.576 2.972 1.646 2.066 1.931 4.873 1.931 7.683v32.046h-8.081m34.457-52.202c-.93-.742-2.432-1.24-3.862-1.24-2.003 0-3.218 1.898-3.218 5.122v6.442h7.581l-1.502 7.101h-6.078v34.772h-8.294V50.695h-2.789v-7.1h2.789s-.144-2.892-.144-5.534c0-6.277 2.072-9.578 4.006-11.23 1.931-1.572 4.15-2.064 6.222-2.064 3.002 0 5.434.66 7.581 2.228l-2.288 6.277m6.728 52.193V43.841l8.222-1.074v42.698zm3.934-47.725c-2.933 0-5.293-2.39-5.293-5.365 0-2.972 2.432-5.362 5.434-5.362 2.93 0 5.293 2.39 5.293 5.36 0 2.974-2.432 5.364-5.434 5.364m32.158 47.728V57.216c0-3.218-.285-4.54-.93-5.446-.573-.828-1.574-1.074-2.648-1.074-1.574 0-3.934 1.322-5.862 3.716v31.056h-8.081V54.661c0-5.038-.645-7.842-1.074-10.16l7.584-1.979c.216.741.93 2.807 1.002 4.954 2.072-2.56 5.865-4.705 9.584-4.705 2.86 0 5.146 1.155 6.575 2.972 1.646 2.066 1.929 4.873 1.929 7.683v32.046h-8.078m33.861-33.127c-.786-1.898-2.075-3.053-4.15-3.053-3.644 0-5.221 3.383-5.365 10.814h10.438c0-3.302-.285-6.109-.928-7.76zm-9.513 14.452v.825c0 2.731.216 5.21 1.217 7.353 1.215 2.564 3.287 3.968 5.79 3.968 2.937 0 5.435-1.49 7.938-4.132l3.218 6.028c-3.577 3.884-7.437 5.614-11.872 5.614-9.509 0-14.945-8.173-14.945-22.055 0-7.185 1.218-12.469 3.862-16.43 2.504-3.72 5.938-5.534 10.085-5.534 3.935 0 7.08 1.568 9.296 4.46 2.934 3.8 4.075 8.918 4.075 18.082v1.817H180.51m38.24-16.928c-5.431 0-5.431 9.911-5.431 14.206 0 4.545-.145 15.033 5.646 15.033 5.365 0 5.365-10.487 5.365-14.87 0-4.54.216-14.372-5.578-14.372zm0 36.67c-11.155 0-14.085-11.89-14.157-22.135-.068-10.322 3.646-21.967 14.232-21.967 8.366 0 14.373 7.515 14.373 21.802 0 10.658-3.505 22.3-14.448 22.3m38.779-1.07V57.216c0-3.218-.285-4.54-.928-5.446-.572-.828-1.576-1.074-2.647-1.074-1.574 0-3.935 1.322-5.862 3.716v31.056h-8.081V54.661c0-5.038-.645-7.842-1.07-10.16l7.58-1.979c.214.741.931 2.807 1.002 4.954 2.072-2.56 5.859-4.705 9.582-4.705 2.86 0 5.151 1.155 6.578 2.972 1.646 2.066 1.929 4.873 1.929 7.683v32.046h-8.078"/></svg>