<?xml version="1.0" encoding="UTF-8" standalone="no"?>
<svg
   xmlns:dc="http://purl.org/dc/elements/1.1/"
   xmlns:cc="http://creativecommons.org/ns#"
   xmlns:rdf="http://www.w3.org/1999/02/22-rdf-syntax-ns#"
   xmlns:svg="http://www.w3.org/2000/svg"
   xmlns="http://www.w3.org/2000/svg"
   xmlns:sodipodi="http://sodipodi.sourceforge.net/DTD/sodipodi-0.dtd"
   xmlns:inkscape="http://www.inkscape.org/namespaces/inkscape"
   width="119.87112mm"
   height="80.315163mm"
   viewBox="0 0 119.87112 80.315163"
   version="1.1"
   id="svg8"
   inkscape:version="1.0.2 (e86c870879, 2021-01-15)"
   sodipodi:docname="Red Flag Linux.svg">
  <defs
     id="defs2" />
  <sodipodi:namedview
     id="base"
     pagecolor="#ffffff"
     bordercolor="#666666"
     borderopacity="1.0"
     inkscape:pageopacity="0.0"
     inkscape:pageshadow="2"
     inkscape:zoom="0.98994949"
     inkscape:cx="189.27325"
     inkscape:cy="178.74685"
     inkscape:document-units="mm"
     inkscape:current-layer="layer1"
     inkscape:document-rotation="0"
     showgrid="false"
     fit-margin-top="0"
     fit-margin-left="0"
     fit-margin-right="0"
     fit-margin-bottom="0"
     inkscape:window-width="1366"
     inkscape:window-height="706"
     inkscape:window-x="0"
     inkscape:window-y="0"
     inkscape:window-maximized="1" />
  <metadata
     id="metadata5">
    <rdf:RDF>
      <cc:Work
         rdf:about="">
        <dc:format>image/svg+xml</dc:format>
        <dc:type
           rdf:resource="http://purl.org/dc/dcmitype/StillImage" />
        <dc:title></dc:title>
      </cc:Work>
    </rdf:RDF>
  </metadata>
  <g
     inkscape:label="Layer 1"
     inkscape:groupmode="layer"
     id="layer1"
     transform="translate(-47.052449,-63.978296)">
    <g
       id="g990"
       transform="matrix(1.7012656,0,0,1.7012656,-75.027007,-73.026902)"
       style="stroke-width:0.587798">
      <g
         id="g974"
         style="stroke-width:0.587798">
        <path
           id="rect860"
           style="fill:#1a1a1a;stroke:none;stroke-width:4.5876"
           d="m 290.43555,421.04492 v 41.15235 10.54687 h 14.14648 20.66016 v -10.54687 h -20.66016 v -41.15235 z"
           transform="scale(0.26458333)" />
        <rect
           style="fill:#1a1a1a;stroke:none;stroke-width:1.2138"
           id="rect864"
           width="3.7430785"
           height="10.301394"
           x="87.571396"
           y="114.77879" />
        <path
           id="rect866"
           style="fill:#1a1a1a;stroke:none;stroke-width:4.5876"
           d="m 380.91211,433.47266 c -9.69812,0 -12.89355,5.92749 -13.10547,6.34179 v -6.0039 H 353.6582 v 38.93359 h 14.14844 v -19.28711 c 0.96226,-5.47767 3.90023,-9.50586 7.88086,-9.50586 4.89922,0 6.29492,6.29492 6.29492,6.29492 v 22.49805 h 14.14844 v -22.49805 c 0,-10.12807 -5.17269,-16.77343 -15.21875,-16.77343 z"
           transform="scale(0.26458333)" />
        <path
           id="path873"
           style="fill:#1a1a1a;stroke:none;stroke-width:1.2138"
           d="m 110.5195,125.08022 c 2.56596,0 3.41142,-1.56832 3.46749,-1.67793 v 1.58853 h 3.74344 v -10.30118 h -3.74344 v 5.10305 c -0.2546,1.4493 -1.03194,2.51509 -2.08514,2.51509 -1.29625,0 -1.66553,-1.66553 -1.66553,-1.66553 v -5.95261 h -3.74344 v 5.95261 c 0,2.67972 1.3686,4.43797 4.02662,4.43797 z" />
        <path
           id="path876"
           style="fill:#1a1a1a;fill-opacity:1;stroke:none;stroke-width:0.587797px;stroke-linecap:butt;stroke-linejoin:miter;stroke-opacity:1"
           d="m 449.31445,433.9082 12.69727,18.95313 -14.13867,20.18555 h 15.37109 l 6.36719,-13.01368 6.72461,13.01368 h 15.02148 l -12.65625,-20.02735 12.48438,-19.11133 h -14.86719 l -5.61914,12.02149 -5.91992,-12.02149 z"
           transform="scale(0.26458333)" />
        <path
           style="fill:#e20a17;fill-opacity:1;stroke:none;stroke-width:0.155521px;stroke-linecap:butt;stroke-linejoin:miter;stroke-opacity:1"
           d="m 89.430957,114.45961 -3.885608,-6.21751 c 0,0 1.882037,0.3502 2.938082,0.239 1.056045,-0.11119 3.93387,-2.10369 6.859955,-0.84454 l 2.446234,4.33806 c 0,0 -4.805078,-0.52073 -8.358663,2.48499 z"
           id="path884" />
      </g>
      <g
         id="g966"
         style="stroke-width:0.587798">
        <path
           style="fill:#e20a17;fill-opacity:1;stroke-width:0.587798"
           d="m 79.471164,106.72649 c -0.469781,-1.34762 -0.364311,-3.06167 0.22463,-3.65061 0.740829,-0.74083 1.272695,-1.86827 1.377918,-2.92088 0.115542,-1.155835 -0.551365,-1.370923 -1.674972,-0.540206 -0.426328,0.315198 -1.096278,0.594646 -1.488779,0.620986 -0.681439,0.0457 -0.717246,-0.0148 -0.79359,-1.340544 -0.0748,-1.298949 -0.03216,-1.409802 0.661459,-1.719792 0.934247,-0.417529 1.845694,-1.379014 2.47638,-2.612332 0.426678,-0.834378 0.441895,-1.02225 0.117869,-1.455208 -0.358552,-0.479088 -0.433325,-0.464894 -2.059223,0.390903 -2.337652,1.230419 -2.704033,1.110752 -2.704033,-0.8832 0,-1.574041 7.94e-4,-1.575635 0.931293,-1.84846 1.205743,-0.353531 2.578296,-1.402551 4.954349,-3.78653 1.862209,-1.868421 2.37721,-2.919336 1.650667,-3.368364 -0.147895,-0.0914 -0.201057,-0.275961 -0.118138,-0.410127 0.218908,-0.354199 1.805198,0.374663 3.031513,1.392906 0.821,0.6817 1.051193,1.057332 1.054921,1.721436 0.0052,0.926605 -0.08932,1.039117 -1.847314,2.198864 -0.654844,0.431999 -1.607343,1.143924 -2.116666,1.582054 l -0.926042,0.796601 0.697768,0.621591 c 1.590777,1.417108 1.636732,2.250123 0.228274,4.137884 -0.582084,0.780168 -1.058334,1.527032 -1.058334,1.659698 0,0.132667 0.235999,0.541236 0.524442,0.907931 l 0.524442,0.66672 0.467746,-0.854035 c 0.25726,-0.469719 0.854698,-1.327775 1.327641,-1.906791 0.472943,-0.579016 0.859896,-1.155535 0.859896,-1.281153 0,-0.305336 2.185192,-1.57362 2.711273,-1.57362 0.228702,0 1.604979,-0.595313 3.058393,-1.322917 1.453413,-0.727604 2.787434,-1.322916 2.96449,-1.322916 0.6875,0 2.402167,1.193425 2.547685,1.773215 0.247909,0.987741 -0.07247,1.690289 -1.69599,3.719032 -0.845235,1.056204 -1.757846,2.294588 -2.028024,2.751963 l -0.491234,0.831591 1.163058,-0.220598 c 1.973745,-0.374363 2.78042,-0.264887 3.80467,0.516347 1.309595,0.998881 1.651087,1.931461 0.960234,2.622321 -0.506484,0.50648 -0.576054,0.509 -2.326555,0.0842 -2.223823,-0.5396 -4.519193,-0.55372 -6.434667,-0.0396 -1.84581,0.49544 -3.286488,0.50327 -3.687521,0.0201 -0.503658,-0.60687 -0.08269,-2.15399 0.680748,-2.50183 0.357732,-0.16299 0.803603,-0.296353 0.990824,-0.296353 0.775623,0 4.727673,-4.52022 4.313853,-4.934039 -0.06847,-0.06847 -0.56623,0.112273 -1.106139,0.401646 -0.993915,0.532707 -1.384541,0.506076 -2.435452,-0.166037 -0.797588,-0.5101 -2.238702,0.01822 -2.843784,1.042541 -0.246695,0.41762 -0.723319,1.055806 -1.059166,1.418191 -0.335846,0.362384 -0.874561,1.520129 -1.197143,2.572771 -0.322582,1.05264 -0.932197,2.71861 -1.3547,3.70215 -0.422502,0.98354 -0.768186,1.96581 -0.768186,2.18281 0,0.49878 -0.938636,1.45288 -1.429326,1.45288 -0.204045,0 -0.501702,-0.37496 -0.661458,-0.83323 z"
           id="path901"
           sodipodi:nodetypes="csssssssssssssssssscsssscssssssssscssssssssssssssssscc" />
        <path
           style="fill:#e20a17;fill-opacity:1;stroke-width:0.587798"
           d="m 116.50615,106.59799 c -0.63149,-0.80281 -0.71534,-2.14837 -0.17953,-2.88113 0.33874,-0.46325 0.29045,-0.53137 -0.59156,-0.8346 l -0.96041,-0.33017 -1.15149,1.31633 c -1.47603,1.68732 -2.0855,2.0304 -2.63348,1.48243 -0.48893,-0.48894 -1.10778,-2.178 -1.11333,-3.0387 -0.002,-0.33955 -0.0933,-0.57385 -0.20242,-0.52067 -0.10914,0.0532 -0.51827,0.25734 -0.90917,0.4537 -0.73516,0.36928 -1.53823,0.24607 -1.53823,-0.236 0,-0.15152 0.24711,-0.48268 0.54913,-0.73591 0.30203,-0.25324 1.33193,-1.531997 2.28867,-2.841683 0.95674,-1.309688 1.85756,-2.532804 2.00183,-2.718036 0.19909,-0.255623 0.14466,-0.291644 -0.22584,-0.149471 -0.41173,0.157998 -0.37239,-0.01019 0.25136,-1.074536 0.73068,-1.246806 0.73211,-1.2579 0.11999,-0.930441 -0.34073,0.182276 -1.27436,0.950045 -2.07472,1.706153 -2.39152,2.25928 -3.017,2.415974 -4.71988,1.182416 -0.82838,-0.600078 -1.08188,-0.95304 -1.04082,-1.449187 0.0493,-0.596001 0.13966,-0.642266 0.98926,-0.506629 0.90326,0.144203 2.71428,-0.588798 8.82544,-3.572036 0.761,-0.371489 1.24378,-0.441245 1.95058,-0.281835 1.87512,0.422908 1.85822,1.387214 -0.0327,1.863341 -2.01983,0.508598 -2.04236,0.976501 -0.11625,2.414127 1.11853,0.834861 1.47905,1.85983 0.94413,2.684254 -0.32806,0.505612 -1.50815,3.441633 -1.50815,3.752223 0,0.33162 1.03454,0.04 2.50112,-0.70497 l 1.62869,-0.827343 v -2.612244 c 0,-1.436734 -0.0379,-2.612245 -0.0841,-2.612245 -0.0463,0 -0.3118,0.142194 -0.59009,0.315985 -0.67607,0.422214 -1.73854,-0.05656 -1.95401,-0.880519 -0.13134,-0.502242 0.20252,-0.971203 1.89955,-2.668235 1.1324,-1.132393 1.9997,-2.058897 1.92735,-2.058897 -0.0724,0 -0.53792,0.146948 -1.03461,0.326552 -0.80469,0.290982 -0.94363,0.271064 -1.27555,-0.182861 -0.47667,-0.651883 -0.4694,-1.682409 0.0178,-2.524941 1.06,-1.833064 1.05733,-1.817519 0.42722,-2.488246 -1.33804,-1.424275 0.60964,-0.938525 2.6436,0.659311 0.96564,0.758587 1.52868,0.797015 2.7929,0.190612 0.78403,-0.376075 2.0517,0.251011 2.16847,1.072688 0.0651,0.45821 -0.23149,0.917665 -1.13648,1.760427 -1.38323,1.288127 -1.28838,1.504679 0.68648,1.567343 1.46688,0.04655 1.94684,0.381015 1.69326,1.179981 -0.12409,0.390975 -0.3969,0.5558 -0.91993,0.5558 -0.40894,0 -0.86486,0.148829 -1.01315,0.33073 -0.1483,0.181901 -0.35575,1.729713 -0.461,3.439583 l -0.19136,3.108854 h 0.77256 c 0.4249,0 0.90078,-0.12823 1.05751,-0.284955 0.47963,-0.479629 2.44788,0.250116 2.62983,0.975028 0.24259,0.966578 -0.0863,1.161762 -1.96467,1.166062 -2.04233,0.005 -2.24455,0.0987 -2.62851,1.22188 l -0.28342,0.82906 1.29827,0.17223 c 1.38602,0.18386 1.80639,0.57783 2.38378,2.23413 0.25278,0.72513 0.22234,1.01353 -0.18728,1.77414 -0.57216,1.06244 -0.9535,1.12809 -1.81779,0.31294 -0.34716,-0.32742 -0.93706,-0.80923 -1.31089,-1.07068 -0.80355,-0.562 -0.93718,-1.3618 -0.1878,-1.12396 0.27054,0.0859 0.68431,0.0823 0.9195,-0.008 0.38859,-0.14911 0.39041,-0.236 0.02,-0.95236 -0.38191,-0.73853 -0.48611,-0.7805 -1.65143,-0.66504 -1.92761,0.19099 -2.94563,0.75512 -4.79662,2.65799 -0.94017,0.96653 -1.85426,1.75733 -2.03132,1.75733 -0.17705,0 -0.56868,-0.31371 -0.87028,-0.69714 z m 3.69653,-3.16996 c 0.69465,-0.3489 1.63106,-0.70798 2.08092,-0.79795 0.85661,-0.17132 1.03619,-0.5671 0.50043,-1.10286 -0.53439,-0.53438 -1.73516,-0.35728 -3.46036,0.51038 -1.75553,0.88291 -2.03253,1.14173 -2.03892,1.90512 -0.003,0.40524 0.131,0.45438 0.82544,0.30186 0.45623,-0.10021 1.39785,-0.46765 2.09249,-0.81655 z m -6.71992,-2.90854 c 1.08791,-2.354642 1.41209,-3.807695 0.84951,-3.807695 -0.41097,0 -3.74574,3.780615 -3.88778,4.407555 -0.13135,0.57974 0.73593,1.41328 1.47047,1.41328 0.53647,0 0.78529,-0.3195 1.5678,-2.01314 z m 10.07072,-1.871446 c 0.24879,-0.648313 -0.0763,-0.633338 -0.70169,0.03232 l -0.60459,0.643565 0.58185,-0.152157 c 0.32001,-0.08369 0.64601,-0.319364 0.72443,-0.523728 z m -1.94377,-0.481041 c 0.10307,-0.268609 -0.0134,-0.396875 -0.36026,-0.396875 -0.34691,0 -0.46334,0.128266 -0.36027,0.396875 0.0838,0.218282 0.24588,0.396875 0.36027,0.396875 0.11438,0 0.2765,-0.178593 0.36026,-0.396875 z m 2.01694,-2.579687 c -0.003,-0.464795 -0.0573,-0.511071 -0.24713,-0.21107 -0.13369,0.211333 -0.18437,0.479224 -0.11263,0.595312 0.2295,0.371324 0.36392,0.227748 0.35976,-0.384242 z m -2.11581,-0.192483 c 0.22462,-0.4197 0.20434,-0.494171 -0.10252,-0.376418 -0.44509,0.170798 -0.78897,0.89963 -0.42446,0.89963 0.13583,0 0.37298,-0.235445 0.52698,-0.523212 z m 2.38039,-2.717934 c 0.002,-0.254661 -0.16965,-0.463021 -0.38195,-0.463021 -0.52325,0 -2.24522,0.872939 -2.25332,1.142309 -0.004,0.118947 0.21436,0.146166 0.48431,0.06049 0.26995,-0.08568 0.77596,-0.04916 1.12448,0.08115 0.68593,0.256477 1.01939,-0.0102 1.02648,-0.820928 z m -4.48856,-0.337123 c 0.52291,-0.630065 0.13933,-0.726321 -0.56314,-0.141316 -0.48945,0.407607 -0.53525,0.528974 -0.20217,0.535783 0.23685,0.0048 0.58123,-0.172669 0.76531,-0.394467 z m -9.79489,-0.904132 c 0,-0.136987 0.70773,-0.626283 1.57273,-1.087323 0.865,-0.461041 1.7772,-1.064198 2.02711,-1.340349 0.4332,-0.478675 0.41414,-0.552185 -0.40866,-1.576047 -0.47468,-0.590674 -0.80101,-1.135994 -0.72518,-1.211822 0.0758,-0.07583 0.77239,-0.0026 1.54791,0.162663 1.4563,0.31039 2.77952,1.167848 2.87398,1.862363 0.15556,1.143795 -0.0293,1.582189 -0.73633,1.745817 -0.77961,0.180435 -2.66812,0.737287 -4.50716,1.328993 -1.33674,0.430091 -1.6444,0.45174 -1.6444,0.115705 z"
           id="path903"
           sodipodi:nodetypes="csscsscssssssssssscsssssssscssssssssssssssssssscssscscssssssccsssccsssscssssssssccsssscssccccsssscscsscsscsssssscssss" />
        <g
           id="g958"
           style="stroke-width:0.587798">
          <g
             aria-label="R"
             id="text918"
             style="font-style:normal;font-variant:normal;font-weight:normal;font-stretch:normal;font-size:6.4605px;line-height:0.55;font-family:sans-serif;-inkscape-font-specification:sans-serif;stroke-width:0.155521">
            <path
               d="m 134.87312,87.895017 q 0.20505,0.0694 0.39748,0.296526 0.19558,0.227127 0.39116,0.6246 l 0.64668,1.287052 h -0.68454 l -0.60251,-1.208189 q -0.23344,-0.473181 -0.45426,-0.627754 -0.21766,-0.154572 -0.59621,-0.154572 h -0.69399 v 1.990515 h -0.63722 v -4.709729 h 1.43847 q 0.80756,0 1.20503,0.337536 0.39748,0.337535 0.39748,1.018916 0,0.44479 -0.2082,0.738163 -0.20505,0.293372 -0.59937,0.406936 z m -1.59619,-1.977898 v 1.671907 h 0.80125 q 0.46056,0 0.694,-0.211354 0.23659,-0.214509 0.23659,-0.627754 0,-0.413245 -0.23659,-0.621444 -0.23344,-0.211355 -0.694,-0.211355 z"
               style="font-style:normal;font-variant:normal;font-weight:normal;font-stretch:normal;font-family:sans-serif;-inkscape-font-specification:sans-serif;stroke-width:0.155521"
               id="path922" />
          </g>
          <path
             style="color:#000000;font-style:normal;font-variant:normal;font-weight:normal;font-stretch:normal;font-size:medium;line-height:normal;font-family:sans-serif;font-variant-ligatures:normal;font-variant-position:normal;font-variant-caps:normal;font-variant-numeric:normal;font-variant-alternates:normal;font-variant-east-asian:normal;font-feature-settings:normal;font-variation-settings:normal;text-indent:0;text-align:start;text-decoration:none;text-decoration-line:none;text-decoration-style:solid;text-decoration-color:#000000;letter-spacing:normal;word-spacing:normal;text-transform:none;writing-mode:lr-tb;direction:ltr;text-orientation:mixed;dominant-baseline:auto;baseline-shift:baseline;text-anchor:start;white-space:normal;shape-padding:0;shape-margin:0;inline-size:0;clip-rule:nonzero;display:inline;overflow:visible;visibility:visible;opacity:1;isolation:auto;mix-blend-mode:normal;color-interpolation:sRGB;color-interpolation-filters:linearRGB;solid-color:#000000;solid-opacity:1;vector-effect:none;fill:#000000;fill-opacity:1;fill-rule:nonzero;stroke:none;stroke-width:0.587798;stroke-linecap:butt;stroke-linejoin:miter;stroke-miterlimit:4;stroke-dasharray:none;stroke-dashoffset:0;stroke-opacity:1;color-rendering:auto;image-rendering:auto;shape-rendering:auto;text-rendering:auto;enable-background:accumulate;stop-color:#000000;stop-opacity:1"
             d="m 134.27148,83.660156 c -2.25808,-4e-6 -4.09765,1.837614 -4.09765,4.095703 0,2.258089 1.83957,4.097661 4.09765,4.097657 2.25809,-3e-6 4.09571,-1.839572 4.09571,-4.097657 0,-2.258085 -1.83762,-4.095701 -4.09571,-4.095703 z m 0,0.792969 c 1.82912,2e-6 3.30274,1.473623 3.30274,3.302734 0,1.829111 -1.47363,3.304686 -3.30274,3.304688 -1.82911,3e-6 -3.30468,-1.475574 -3.30468,-3.304688 0,-1.829114 1.47557,-3.302737 3.30468,-3.302734 z"
             id="path920" />
          <path
             style="color:#000000;font-style:normal;font-variant:normal;font-weight:normal;font-stretch:normal;font-size:medium;line-height:normal;font-family:sans-serif;font-variant-ligatures:normal;font-variant-position:normal;font-variant-caps:normal;font-variant-numeric:normal;font-variant-alternates:normal;font-variant-east-asian:normal;font-feature-settings:normal;font-variation-settings:normal;text-indent:0;text-align:start;text-decoration:none;text-decoration-line:none;text-decoration-style:solid;text-decoration-color:#000000;letter-spacing:normal;word-spacing:normal;text-transform:none;writing-mode:lr-tb;direction:ltr;text-orientation:mixed;dominant-baseline:auto;baseline-shift:baseline;text-anchor:start;white-space:normal;shape-padding:0;shape-margin:0;inline-size:0;clip-rule:nonzero;display:inline;overflow:visible;visibility:visible;opacity:1;isolation:auto;mix-blend-mode:normal;color-interpolation:sRGB;color-interpolation-filters:linearRGB;solid-color:#000000;solid-opacity:1;vector-effect:none;fill:#000000;fill-opacity:1;fill-rule:nonzero;stroke:none;stroke-width:0.587798;stroke-linecap:butt;stroke-linejoin:miter;stroke-miterlimit:4;stroke-dasharray:none;stroke-dashoffset:0;stroke-opacity:1;color-rendering:auto;image-rendering:auto;shape-rendering:auto;text-rendering:auto;enable-background:accumulate;stop-color:#000000;stop-opacity:1"
             d="m 134.27148,83.660156 c -2.25808,-4e-6 -4.09765,1.837614 -4.09765,4.095703 0,2.258089 1.83957,4.097661 4.09765,4.097657 2.25809,-3e-6 4.09571,-1.839572 4.09571,-4.097657 0,-2.258085 -1.83762,-4.095701 -4.09571,-4.095703 z m 0,0.792969 c 1.82912,2e-6 3.30274,1.473623 3.30274,3.302734 0,1.829111 -1.47363,3.304686 -3.30274,3.304688 -1.82911,3e-6 -3.30468,-1.475574 -3.30468,-3.304688 0,-1.829114 1.47557,-3.302737 3.30468,-3.302734 z"
             id="path996" />
        </g>
      </g>
    </g>
  </g>
</svg>
